# MagicaVoxel @ Ephtracy

# group
o 

# material
mtllib bestBrick.mtl
usemtl palette

# normals
vn 0 -1 0
vn 0 1 0
vn 0 0 1
vn 0 0 -1
vn 1 0 0
vn -1 0 0

# texcoords
vt 0.306641 0.5
vt 0.994141 0.5

# verts
v 0.5 0 0.5
v 0.5 0 0.1
v 0.5 0 -0.1
v 0.5 0 -0.5
v 0.4 0 0.1
v 0.4 0 -0.1
v -0.4 0 0.1
v -0.4 0 -0.1
v -0.5 0 0.5
v -0.5 0 0.1
v -0.5 0 -0.1
v -0.5 0 -0.5
v 0.3 0.3 0.1
v 0.3 0.3 0
v 0.2 0.3 0.1
v 0.2 0.3 0
v 0.5 0.6 0.5
v 0.5 0.6 -0.5
v 0.4 0.6 0.4
v 0.4 0.6 -0.4
v 0.3 0.6 0.1
v 0.3 0.6 0
v 0.2 0.6 0.1
v 0.2 0.6 0
v 0.1 0.6 0.5
v 0.1 0.6 0.4
v 0.1 0.6 -0.4
v 0.1 0.6 -0.5
v -0.1 0.6 0.5
v -0.1 0.6 0.4
v -0.1 0.6 -0.4
v -0.1 0.6 -0.5
v -0.4 0.6 0.4
v -0.4 0.6 -0.4
v -0.5 0.6 0.5
v -0.5 0.6 -0.5
v 0.3 0.2 0.1
v 0.3 0.2 0
v 0.2 0.2 0.1
v 0.2 0.2 0
v 0.5 0.4 0.5
v 0.5 0.4 0.1
v 0.5 0.4 -0.1
v 0.5 0.4 -0.5
v 0.4 0.4 0.4
v 0.4 0.4 0.1
v 0.4 0.4 -0.1
v 0.4 0.4 -0.4
v -0.4 0.4 0.4
v -0.4 0.4 0.1
v -0.4 0.4 -0.1
v -0.4 0.4 -0.4
v -0.5 0.4 0.5
v -0.5 0.4 0.1
v -0.5 0.4 -0.1
v -0.5 0.4 -0.5
v 0.3 0.5 0.1
v 0.3 0.5 0
v 0.2 0.5 0.1
v 0.2 0.5 0
v 0.5 1 0.5
v 0.5 1 -0.5
v 0.1 1 0.5
v 0.1 1 0.4
v 0.1 1 -0.4
v 0.1 1 -0.5
v -0.1 1 0.5
v -0.1 1 0.4
v -0.1 1 -0.4
v -0.1 1 -0.5
v -0.5 1 0.5
v -0.5 1 -0.5
v 0.5 0 0.5
v -0.5 0 0.5
v 0.5 0.4 0.5
v -0.5 0.4 0.5
v 0.5 0.6 0.5
v 0.1 0.6 0.5
v -0.1 0.6 0.5
v -0.5 0.6 0.5
v 0.5 1 0.5
v 0.1 1 0.5
v -0.1 1 0.5
v -0.5 1 0.5
v 0.4 0.4 0.4
v -0.4 0.4 0.4
v 0.4 0.6 0.4
v 0.1 0.6 0.4
v -0.1 0.6 0.4
v -0.4 0.6 0.4
v 0.1 1 0.4
v -0.1 1 0.4
v 0.3 0.2 0
v 0.2 0.2 0
v 0.3 0.3 0
v 0.2 0.3 0
v 0.3 0.5 0
v 0.2 0.5 0
v 0.3 0.6 0
v 0.2 0.6 0
v 0.5 0 -0.1
v 0.4 0 -0.1
v -0.4 0 -0.1
v -0.5 0 -0.1
v 0.5 0.4 -0.1
v 0.4 0.4 -0.1
v -0.4 0.4 -0.1
v -0.5 0.4 -0.1
v 0.5 0 0.1
v 0.4 0 0.1
v -0.4 0 0.1
v -0.5 0 0.1
v 0.3 0.2 0.1
v 0.2 0.2 0.1
v 0.3 0.3 0.1
v 0.2 0.3 0.1
v 0.5 0.4 0.1
v 0.4 0.4 0.1
v -0.4 0.4 0.1
v -0.5 0.4 0.1
v 0.3 0.5 0.1
v 0.2 0.5 0.1
v 0.3 0.6 0.1
v 0.2 0.6 0.1
v 0.4 0.4 -0.4
v -0.4 0.4 -0.4
v 0.4 0.6 -0.4
v 0.1 0.6 -0.4
v -0.1 0.6 -0.4
v -0.4 0.6 -0.4
v 0.1 1 -0.4
v -0.1 1 -0.4
v 0.5 0 -0.5
v -0.5 0 -0.5
v 0.5 0.4 -0.5
v -0.5 0.4 -0.5
v 0.5 0.6 -0.5
v 0.1 0.6 -0.5
v -0.1 0.6 -0.5
v -0.5 0.6 -0.5
v 0.5 1 -0.5
v 0.1 1 -0.5
v -0.1 1 -0.5
v -0.5 1 -0.5
v 0.5 0 0.5
v 0.5 0.4 0.5
v 0.5 0.6 0.5
v 0.5 1 0.5
v 0.5 0 0.1
v 0.5 0.4 0.1
v 0.5 0 -0.1
v 0.5 0.4 -0.1
v 0.5 0 -0.5
v 0.5 0.4 -0.5
v 0.5 0.6 -0.5
v 0.5 1 -0.5
v 0.4 0.4 0.4
v 0.4 0.6 0.4
v 0.4 0 0.1
v 0.4 0.4 0.1
v 0.4 0 -0.1
v 0.4 0.4 -0.1
v 0.4 0.4 -0.4
v 0.4 0.6 -0.4
v 0.2 0.2 0.1
v 0.2 0.3 0.1
v 0.2 0.5 0.1
v 0.2 0.6 0.1
v 0.2 0.2 0
v 0.2 0.3 0
v 0.2 0.5 0
v 0.2 0.6 0
v -0.1 0.6 0.5
v -0.1 1 0.5
v -0.1 0.6 0.4
v -0.1 1 0.4
v -0.1 0.6 -0.4
v -0.1 1 -0.4
v -0.1 0.6 -0.5
v -0.1 1 -0.5
v 0.3 0.2 0.1
v 0.3 0.3 0.1
v 0.3 0.5 0.1
v 0.3 0.6 0.1
v 0.3 0.2 0
v 0.3 0.3 0
v 0.3 0.5 0
v 0.3 0.6 0
v 0.1 0.6 0.5
v 0.1 1 0.5
v 0.1 0.6 0.4
v 0.1 1 0.4
v 0.1 0.6 -0.4
v 0.1 1 -0.4
v 0.1 0.6 -0.5
v 0.1 1 -0.5
v -0.4 0.4 0.4
v -0.4 0.6 0.4
v -0.4 0 0.1
v -0.4 0.4 0.1
v -0.4 0 -0.1
v -0.4 0.4 -0.1
v -0.4 0.4 -0.4
v -0.4 0.6 -0.4
v -0.5 0 0.5
v -0.5 0.4 0.5
v -0.5 0.6 0.5
v -0.5 1 0.5
v -0.5 0 0.1
v -0.5 0.4 0.1
v -0.5 0 -0.1
v -0.5 0.4 -0.1
v -0.5 0 -0.5
v -0.5 0.4 -0.5
v -0.5 0.6 -0.5
v -0.5 1 -0.5

# faces
f 5/2/1 2/2/1 1/2/1
f 6/2/1 4/2/1 3/2/1
f 7/2/1 5/2/1 1/2/1
f 7/1/1 6/1/1 5/1/1
f 8/2/1 4/2/1 6/2/1
f 8/1/1 6/1/1 7/1/1
f 9/2/1 7/2/1 1/2/1
f 10/2/1 7/2/1 9/2/1
f 11/2/1 4/2/1 8/2/1
f 12/2/1 4/2/1 11/2/1
f 15/1/1 14/1/1 13/1/1
f 16/1/1 14/1/1 15/1/1
f 19/2/1 18/2/1 17/2/1
f 20/2/1 18/2/1 19/2/1
f 23/2/1 22/2/1 21/2/1
f 24/2/1 22/2/1 23/2/1
f 25/2/1 19/2/1 17/2/1
f 26/2/1 19/2/1 25/2/1
f 27/2/1 18/2/1 20/2/1
f 28/2/1 18/2/1 27/2/1
f 33/2/1 30/2/1 29/2/1
f 34/2/1 32/2/1 31/2/1
f 35/2/1 33/2/1 29/2/1
f 35/2/1 34/2/1 33/2/1
f 36/2/1 32/2/1 34/2/1
f 36/2/1 34/2/1 35/2/1
f 37/1/2 38/1/2 39/1/2
f 39/1/2 38/1/2 40/1/2
f 41/2/2 42/2/2 45/2/2
f 45/2/2 42/2/2 46/2/2
f 43/2/2 44/2/2 47/2/2
f 47/2/2 44/2/2 48/2/2
f 41/2/2 45/2/2 49/2/2
f 48/2/2 44/2/2 52/2/2
f 49/2/2 50/2/2 53/2/2
f 41/2/2 49/2/2 53/2/2
f 53/2/2 50/2/2 54/2/2
f 51/2/2 52/2/2 55/2/2
f 52/2/2 44/2/2 56/2/2
f 55/2/2 52/2/2 56/2/2
f 57/1/2 58/1/2 59/1/2
f 59/1/2 58/1/2 60/1/2
f 61/2/2 62/2/2 63/2/2
f 63/2/2 62/2/2 64/2/2
f 64/2/2 62/2/2 65/2/2
f 65/2/2 62/2/2 66/2/2
f 64/1/2 65/1/2 68/1/2
f 68/1/2 65/1/2 69/1/2
f 67/2/2 68/2/2 71/2/2
f 69/2/2 70/2/2 71/2/2
f 68/2/2 69/2/2 71/2/2
f 71/2/2 70/2/2 72/2/2
f 75/2/3 74/2/3 73/2/3
f 76/2/3 74/2/3 75/2/3
f 81/2/3 78/2/3 77/2/3
f 82/2/3 78/2/3 81/2/3
f 83/2/3 80/2/3 79/2/3
f 84/2/3 80/2/3 83/2/3
f 87/1/3 86/1/3 85/1/3
f 88/1/3 86/1/3 87/1/3
f 89/1/3 86/1/3 88/1/3
f 90/1/3 86/1/3 89/1/3
f 91/1/3 89/1/3 88/1/3
f 92/1/3 89/1/3 91/1/3
f 95/1/3 94/1/3 93/1/3
f 96/1/3 94/1/3 95/1/3
f 99/1/3 98/1/3 97/1/3
f 100/1/3 98/1/3 99/1/3
f 105/2/3 102/2/3 101/2/3
f 106/2/3 102/2/3 105/2/3
f 107/2/3 104/2/3 103/2/3
f 108/2/3 104/2/3 107/2/3
f 113/2/4 114/2/4 115/2/4
f 115/2/4 114/2/4 116/2/4
f 109/2/4 110/2/4 117/2/4
f 117/2/4 110/2/4 118/2/4
f 111/2/4 112/2/4 119/2/4
f 119/2/4 112/2/4 120/2/4
f 121/1/4 122/1/4 123/1/4
f 123/1/4 122/1/4 124/1/4
f 125/1/4 126/1/4 127/1/4
f 127/1/4 126/1/4 128/1/4
f 128/1/4 126/1/4 129/1/4
f 129/1/4 126/1/4 130/1/4
f 128/1/4 129/1/4 131/1/4
f 131/1/4 129/1/4 132/1/4
f 133/2/4 134/2/4 135/2/4
f 135/2/4 134/2/4 136/2/4
f 137/2/4 138/2/4 141/2/4
f 141/2/4 138/2/4 142/2/4
f 139/2/4 140/2/4 143/2/4
f 143/2/4 140/2/4 144/2/4
f 149/2/5 146/2/5 145/2/5
f 150/2/5 146/2/5 149/2/5
f 153/2/5 152/2/5 151/2/5
f 154/2/5 152/2/5 153/2/5
f 155/2/5 148/2/5 147/2/5
f 156/2/5 148/2/5 155/2/5
f 160/1/5 158/1/5 157/1/5
f 161/1/5 160/1/5 159/1/5
f 162/1/5 158/1/5 160/1/5
f 162/1/5 160/1/5 161/1/5
f 163/1/5 158/1/5 162/1/5
f 164/1/5 158/1/5 163/1/5
f 169/1/5 166/1/5 165/1/5
f 170/1/5 166/1/5 169/1/5
f 171/1/5 168/1/5 167/1/5
f 172/1/5 168/1/5 171/1/5
f 175/2/5 174/2/5 173/2/5
f 176/2/5 174/2/5 175/2/5
f 179/2/5 178/2/5 177/2/5
f 180/2/5 178/2/5 179/2/5
f 181/1/6 182/1/6 185/1/6
f 185/1/6 182/1/6 186/1/6
f 183/1/6 184/1/6 187/1/6
f 187/1/6 184/1/6 188/1/6
f 189/2/6 190/2/6 191/2/6
f 191/2/6 190/2/6 192/2/6
f 193/2/6 194/2/6 195/2/6
f 195/2/6 194/2/6 196/2/6
f 197/1/6 198/1/6 200/1/6
f 199/1/6 200/1/6 201/1/6
f 200/1/6 198/1/6 202/1/6
f 201/1/6 200/1/6 202/1/6
f 202/1/6 198/1/6 203/1/6
f 203/1/6 198/1/6 204/1/6
f 205/2/6 206/2/6 209/2/6
f 209/2/6 206/2/6 210/2/6
f 211/2/6 212/2/6 213/2/6
f 213/2/6 212/2/6 214/2/6
f 207/2/6 208/2/6 215/2/6
f 215/2/6 208/2/6 216/2/6
