# MagicaVoxel @ Ephtracy

# group
o 

# material
mtllib blueTank-1.mtl
usemtl palette

# normals
vn -1 0 0
vn 1 0 0
vn 0 0 1
vn 0 0 -1
vn 0 -1 0
vn 0 1 0

# texcoords
vt 0.689453 0.5
vt 0.693359 0.5
vt 0.701172 0.5
vt 0.724609 0.5

# verts
v -0.6 0.9 0.6
v -0.6 0.9 0.3
v -0.6 0.9 -0.2
v -0.6 0.9 -0.6
v -0.6 1 0.3
v -0.6 1 0.2
v -0.6 1 -0.1
v -0.6 1 -0.2
v -0.6 1.1 0.2
v -0.6 1.1 -0.1
v -0.6 1.1 -0.4
v -0.6 1.1 -0.6
v -0.6 1.2 0.6
v -0.6 1.2 0.5
v -0.6 1.2 -0.3
v -0.6 1.2 -0.4
v -0.6 1.3 0.5
v -0.6 1.3 0.4
v -0.6 1.3 -0.2
v -0.6 1.3 -0.3
v -0.6 1.4 0.4
v -0.6 1.4 -0.2
v -0.5 1.1 -0.4
v -0.5 1.1 -0.5
v -0.5 1.2 0.6
v -0.5 1.2 0.5
v -0.5 1.2 -0.3
v -0.5 1.2 -0.4
v -0.5 1.2 -0.5
v -0.5 1.3 0.6
v -0.5 1.3 0.5
v -0.5 1.3 -0.2
v -0.5 1.3 -0.3
v -0.5 1.3 -0.4
v -0.5 1.4 0.4
v -0.5 1.4 -0.2
v -0.5 1.4 -0.3
v -0.5 1.5 0.4
v -0.5 1.5 -0.2
v -0.4 1.1 -0.5
v -0.4 1.1 -0.6
v -0.4 1.2 -0.4
v -0.4 1.2 -0.5
v -0.4 1.2 -0.6
v -0.4 1.3 0.6
v -0.4 1.3 0.4
v -0.4 1.3 -0.3
v -0.4 1.3 -0.4
v -0.4 1.3 -0.5
v -0.4 1.4 -0.2
v -0.4 1.4 -0.3
v -0.4 1.4 -0.4
v -0.4 1.5 0.4
v -0.4 1.5 0
v -0.4 1.5 -0.2
v -0.4 1.5 -0.3
v -0.4 1.6 0.6
v -0.4 1.6 0
v -0.3 1.2 -0.5
v -0.3 1.2 -0.6
v -0.3 1.3 -0.5
v -0.3 1.3 -0.6
v -0.3 1.4 -0.3
v -0.3 1.4 -0.4
v -0.3 1.5 -0.3
v -0.3 1.5 -0.4
v -0.3 1.6 0.5
v -0.3 1.6 0
v -0.3 1.7 0.5
v -0.3 1.7 0
v -0.2 1.2 1.6
v -0.2 1.2 0.6
v -0.2 1.3 -0.4
v -0.2 1.3 -0.5
v -0.2 1.4 1.6
v -0.2 1.4 0.6
v -0.2 1.4 -0.4
v -0.2 1.4 -0.5
v -0.2 1.5 0
v -0.2 1.5 -0.2
v -0.2 1.6 0.6
v -0.2 1.6 0.5
v -0.2 1.6 -0.1
v -0.2 1.6 -0.2
v -0.2 1.7 0.6
v -0.2 1.7 0.5
v -0.2 1.7 0
v -0.2 1.7 -0.1
v -0.1 1.1 1.6
v -0.1 1.1 0.6
v -0.1 1.2 1.6
v -0.1 1.2 0.6
v -0.1 1.4 1.6
v -0.1 1.4 0.6
v -0.1 1.5 1.6
v -0.1 1.5 0.6
v 0.1 1.2 1.6
v 0.1 1.2 1.3
v 0.1 1.4 1.6
v 0.1 1.4 1.3
v 0.5 1.1 -0.5
v 0.5 1.1 -0.6
v 0.5 1.2 -0.5
v 0.5 2.2 -0.5
v 0.5 2.2 -0.6
v -0.1 1.2 1.6
v -0.1 1.2 1.3
v -0.1 1.4 1.6
v -0.1 1.4 1.3
v 0.1 1.1 1.6
v 0.1 1.1 0.6
v 0.1 1.2 1.6
v 0.1 1.2 0.6
v 0.1 1.4 1.6
v 0.1 1.4 0.6
v 0.1 1.5 1.6
v 0.1 1.5 0.6
v 0.2 1.2 1.6
v 0.2 1.2 0.6
v 0.2 1.3 -0.4
v 0.2 1.3 -0.5
v 0.2 1.4 1.6
v 0.2 1.4 0.6
v 0.2 1.4 -0.4
v 0.2 1.4 -0.5
v 0.2 1.5 0
v 0.2 1.5 -0.2
v 0.2 1.6 0.6
v 0.2 1.6 0.5
v 0.2 1.6 -0.1
v 0.2 1.6 -0.2
v 0.2 1.7 0.6
v 0.2 1.7 0.5
v 0.2 1.7 0
v 0.2 1.7 -0.1
v 0.3 1.2 -0.5
v 0.3 1.2 -0.6
v 0.3 1.3 -0.5
v 0.3 1.3 -0.6
v 0.3 1.4 -0.3
v 0.3 1.4 -0.4
v 0.3 1.5 -0.3
v 0.3 1.5 -0.4
v 0.3 1.6 0.5
v 0.3 1.6 0
v 0.3 1.7 0.5
v 0.3 1.7 0
v 0.4 1.1 -0.5
v 0.4 1.1 -0.6
v 0.4 1.2 -0.4
v 0.4 1.2 -0.5
v 0.4 1.2 -0.6
v 0.4 1.3 0.6
v 0.4 1.3 0.4
v 0.4 1.3 -0.3
v 0.4 1.3 -0.4
v 0.4 1.3 -0.5
v 0.4 1.4 -0.2
v 0.4 1.4 -0.3
v 0.4 1.4 -0.4
v 0.4 1.5 0.4
v 0.4 1.5 0
v 0.4 1.5 -0.2
v 0.4 1.5 -0.3
v 0.4 1.6 0.6
v 0.4 1.6 0
v 0.5 1.1 -0.4
v 0.5 1.1 -0.5
v 0.5 1.2 0.6
v 0.5 1.2 0.5
v 0.5 1.2 -0.3
v 0.5 1.2 -0.4
v 0.5 1.2 -0.5
v 0.5 1.3 0.6
v 0.5 1.3 0.5
v 0.5 1.3 -0.2
v 0.5 1.3 -0.3
v 0.5 1.3 -0.4
v 0.5 1.4 0.4
v 0.5 1.4 -0.2
v 0.5 1.4 -0.3
v 0.5 1.5 0.4
v 0.5 1.5 -0.2
v 0.6 0.9 0.6
v 0.6 0.9 0.3
v 0.6 0.9 -0.2
v 0.6 0.9 -0.6
v 0.6 1 0.3
v 0.6 1 0.2
v 0.6 1 -0.1
v 0.6 1 -0.2
v 0.6 1.1 0.2
v 0.6 1.1 -0.1
v 0.6 1.1 -0.4
v 0.6 1.1 -0.5
v 0.6 1.1 -0.6
v 0.6 1.2 0.6
v 0.6 1.2 0.5
v 0.6 1.2 -0.3
v 0.6 1.2 -0.4
v 0.6 1.3 0.5
v 0.6 1.3 0.4
v 0.6 1.3 -0.2
v 0.6 1.3 -0.3
v 0.6 1.4 0.4
v 0.6 1.4 -0.2
v 0.6 2.2 -0.5
v 0.6 2.2 -0.6
v -0.2 1.2 1.6
v -0.2 1.4 1.6
v -0.1 1.1 1.6
v -0.1 1.2 1.6
v -0.1 1.4 1.6
v -0.1 1.5 1.6
v 0.1 1.1 1.6
v 0.1 1.2 1.6
v 0.1 1.4 1.6
v 0.1 1.5 1.6
v 0.2 1.2 1.6
v 0.2 1.4 1.6
v -0.1 1.2 1.3
v -0.1 1.4 1.3
v 0.1 1.2 1.3
v 0.1 1.4 1.3
v -0.6 0.9 0.6
v -0.6 1.2 0.6
v -0.5 1.2 0.6
v -0.5 1.3 0.6
v -0.4 1.3 0.6
v -0.4 1.6 0.6
v -0.3 1.2 0.6
v -0.3 1.4 0.6
v -0.2 1.1 0.6
v -0.2 1.2 0.6
v -0.2 1.4 0.6
v -0.2 1.5 0.6
v -0.2 1.6 0.6
v -0.2 1.7 0.6
v -0.1 1 0.6
v -0.1 1.1 0.6
v -0.1 1.2 0.6
v -0.1 1.4 0.6
v -0.1 1.5 0.6
v -0.1 1.6 0.6
v 0.1 1 0.6
v 0.1 1.1 0.6
v 0.1 1.2 0.6
v 0.1 1.4 0.6
v 0.1 1.5 0.6
v 0.1 1.6 0.6
v 0.2 1.1 0.6
v 0.2 1.2 0.6
v 0.2 1.4 0.6
v 0.2 1.5 0.6
v 0.2 1.6 0.6
v 0.2 1.7 0.6
v 0.3 1.2 0.6
v 0.3 1.4 0.6
v 0.4 1.3 0.6
v 0.4 1.6 0.6
v 0.5 1.2 0.6
v 0.5 1.3 0.6
v 0.6 0.9 0.6
v 0.6 1.2 0.6
v -0.6 1.2 0.5
v -0.6 1.3 0.5
v -0.5 1.2 0.5
v -0.5 1.3 0.5
v -0.3 1.6 0.5
v -0.3 1.7 0.5
v -0.2 1.6 0.5
v -0.2 1.7 0.5
v 0.2 1.6 0.5
v 0.2 1.7 0.5
v 0.3 1.6 0.5
v 0.3 1.7 0.5
v 0.5 1.2 0.5
v 0.5 1.3 0.5
v 0.6 1.2 0.5
v 0.6 1.3 0.5
v -0.6 1.3 0.4
v -0.6 1.4 0.4
v -0.5 1.4 0.4
v -0.5 1.5 0.4
v -0.4 1.3 0.4
v -0.4 1.5 0.4
v 0.4 1.3 0.4
v 0.4 1.5 0.4
v 0.5 1.4 0.4
v 0.5 1.5 0.4
v 0.6 1.3 0.4
v 0.6 1.4 0.4
v 0.5 1.1 -0.5
v 0.5 1.2 -0.5
v 0.5 2.2 -0.5
v 0.6 1.1 -0.5
v 0.6 2.2 -0.5
v -0.4 1.5 0
v -0.4 1.6 0
v -0.3 1.6 0
v -0.3 1.7 0
v -0.2 1.5 0
v -0.2 1.7 0
v 0.2 1.5 0
v 0.2 1.7 0
v 0.3 1.6 0
v 0.3 1.7 0
v 0.4 1.5 0
v 0.4 1.6 0
v -0.2 1.6 -0.1
v -0.2 1.7 -0.1
v 0.2 1.6 -0.1
v 0.2 1.7 -0.1
v -0.6 1.3 -0.2
v -0.6 1.4 -0.2
v -0.5 1.3 -0.2
v -0.5 1.4 -0.2
v -0.5 1.5 -0.2
v -0.4 1.4 -0.2
v -0.4 1.5 -0.2
v -0.2 1.5 -0.2
v -0.2 1.6 -0.2
v 0.2 1.5 -0.2
v 0.2 1.6 -0.2
v 0.4 1.4 -0.2
v 0.4 1.5 -0.2
v 0.5 1.3 -0.2
v 0.5 1.4 -0.2
v 0.5 1.5 -0.2
v 0.6 1.3 -0.2
v 0.6 1.4 -0.2
v -0.6 1.2 -0.3
v -0.6 1.3 -0.3
v -0.5 1.2 -0.3
v -0.5 1.3 -0.3
v -0.5 1.4 -0.3
v -0.4 1.3 -0.3
v -0.4 1.4 -0.3
v -0.4 1.5 -0.3
v -0.3 1.4 -0.3
v -0.3 1.5 -0.3
v 0.3 1.4 -0.3
v 0.3 1.5 -0.3
v 0.4 1.3 -0.3
v 0.4 1.4 -0.3
v 0.4 1.5 -0.3
v 0.5 1.2 -0.3
v 0.5 1.3 -0.3
v 0.5 1.4 -0.3
v 0.6 1.2 -0.3
v 0.6 1.3 -0.3
v -0.6 1.1 -0.4
v -0.6 1.2 -0.4
v -0.5 1.1 -0.4
v -0.5 1.2 -0.4
v -0.5 1.3 -0.4
v -0.4 1.2 -0.4
v -0.4 1.3 -0.4
v -0.4 1.4 -0.4
v -0.3 1.4 -0.4
v -0.3 1.5 -0.4
v -0.2 1.3 -0.4
v -0.2 1.4 -0.4
v 0.2 1.3 -0.4
v 0.2 1.4 -0.4
v 0.3 1.4 -0.4
v 0.3 1.5 -0.4
v 0.4 1.2 -0.4
v 0.4 1.3 -0.4
v 0.4 1.4 -0.4
v 0.5 1.1 -0.4
v 0.5 1.2 -0.4
v 0.5 1.3 -0.4
v 0.6 1.1 -0.4
v 0.6 1.2 -0.4
v -0.5 1.1 -0.5
v -0.5 1.2 -0.5
v -0.4 1.1 -0.5
v -0.4 1.2 -0.5
v -0.4 1.3 -0.5
v -0.3 1.2 -0.5
v -0.3 1.3 -0.5
v -0.2 1.3 -0.5
v -0.2 1.4 -0.5
v 0.2 1.3 -0.5
v 0.2 1.4 -0.5
v 0.3 1.2 -0.5
v 0.3 1.3 -0.5
v 0.4 1.1 -0.5
v 0.4 1.2 -0.5
v 0.4 1.3 -0.5
v 0.5 1.1 -0.5
v 0.5 1.2 -0.5
v -0.6 0.9 -0.6
v -0.6 1.1 -0.6
v -0.4 1.1 -0.6
v -0.4 1.2 -0.6
v -0.3 1.2 -0.6
v -0.3 1.3 -0.6
v 0.3 1.2 -0.6
v 0.3 1.3 -0.6
v 0.4 1.1 -0.6
v 0.4 1.2 -0.6
v 0.5 1.1 -0.6
v 0.5 2.2 -0.6
v 0.6 0.9 -0.6
v 0.6 1.1 -0.6
v 0.6 2.2 -0.6
v -0.6 0.9 0.6
v 0.6 0.9 0.6
v -0.6 0.9 0.3
v -0.5 0.9 0.3
v 0.5 0.9 0.3
v 0.6 0.9 0.3
v -0.6 0.9 -0.2
v -0.5 0.9 -0.2
v 0.5 0.9 -0.2
v 0.6 0.9 -0.2
v -0.6 0.9 -0.6
v 0.6 0.9 -0.6
v -0.1 1.1 1.6
v 0.1 1.1 1.6
v -0.1 1.1 0.6
v 0.1 1.1 0.6
v -0.2 1.2 1.6
v -0.1 1.2 1.6
v 0.1 1.2 1.6
v 0.2 1.2 1.6
v -0.2 1.2 0.6
v -0.1 1.2 0.6
v 0.1 1.2 0.6
v 0.2 1.2 0.6
v -0.1 1.4 1.6
v 0.1 1.4 1.6
v -0.1 1.4 1.3
v 0.1 1.4 1.3
v -0.6 1.1 -0.4
v -0.5 1.1 -0.4
v 0.5 1.1 -0.4
v 0.6 1.1 -0.4
v -0.5 1.1 -0.5
v -0.4 1.1 -0.5
v 0.4 1.1 -0.5
v 0.5 1.1 -0.5
v 0.6 1.1 -0.5
v -0.6 1.1 -0.6
v -0.4 1.1 -0.6
v 0.4 1.1 -0.6
v 0.5 1.1 -0.6
v -0.1 1.2 1.6
v 0.1 1.2 1.6
v -0.1 1.2 1.3
v 0.1 1.2 1.3
v -0.6 1.2 0.6
v -0.5 1.2 0.6
v 0.5 1.2 0.6
v 0.6 1.2 0.6
v -0.6 1.2 0.5
v -0.5 1.2 0.5
v 0.5 1.2 0.5
v 0.6 1.2 0.5
v -0.6 1.2 -0.3
v -0.5 1.2 -0.3
v 0.5 1.2 -0.3
v 0.6 1.2 -0.3
v -0.6 1.2 -0.4
v -0.5 1.2 -0.4
v -0.4 1.2 -0.4
v 0.4 1.2 -0.4
v 0.5 1.2 -0.4
v 0.6 1.2 -0.4
v -0.5 1.2 -0.5
v -0.4 1.2 -0.5
v -0.3 1.2 -0.5
v 0.3 1.2 -0.5
v 0.4 1.2 -0.5
v 0.5 1.2 -0.5
v -0.4 1.2 -0.6
v -0.3 1.2 -0.6
v 0.3 1.2 -0.6
v 0.4 1.2 -0.6
v -0.5 1.3 0.6
v -0.4 1.3 0.6
v 0.4 1.3 0.6
v 0.5 1.3 0.6
v -0.6 1.3 0.5
v -0.5 1.3 0.5
v 0.5 1.3 0.5
v 0.6 1.3 0.5
v -0.6 1.3 0.4
v -0.4 1.3 0.4
v 0.4 1.3 0.4
v 0.6 1.3 0.4
v -0.6 1.3 -0.2
v -0.5 1.3 -0.2
v 0.5 1.3 -0.2
v 0.6 1.3 -0.2
v -0.6 1.3 -0.3
v -0.5 1.3 -0.3
v -0.4 1.3 -0.3
v 0.4 1.3 -0.3
v 0.5 1.3 -0.3
v 0.6 1.3 -0.3
v -0.5 1.3 -0.4
v -0.4 1.3 -0.4
v -0.2 1.3 -0.4
v 0.2 1.3 -0.4
v 0.4 1.3 -0.4
v 0.5 1.3 -0.4
v -0.4 1.3 -0.5
v -0.3 1.3 -0.5
v -0.2 1.3 -0.5
v 0.2 1.3 -0.5
v 0.3 1.3 -0.5
v 0.4 1.3 -0.5
v -0.3 1.3 -0.6
v 0.3 1.3 -0.6
v -0.2 1.4 1.6
v -0.1 1.4 1.6
v 0.1 1.4 1.6
v 0.2 1.4 1.6
v -0.2 1.4 0.6
v -0.1 1.4 0.6
v 0.1 1.4 0.6
v 0.2 1.4 0.6
v -0.6 1.4 0.4
v -0.5 1.4 0.4
v 0.5 1.4 0.4
v 0.6 1.4 0.4
v -0.6 1.4 -0.2
v -0.5 1.4 -0.2
v -0.4 1.4 -0.2
v 0.4 1.4 -0.2
v 0.5 1.4 -0.2
v 0.6 1.4 -0.2
v -0.5 1.4 -0.3
v -0.4 1.4 -0.3
v -0.3 1.4 -0.3
v 0.3 1.4 -0.3
v 0.4 1.4 -0.3
v 0.5 1.4 -0.3
v -0.4 1.4 -0.4
v -0.3 1.4 -0.4
v -0.2 1.4 -0.4
v 0.2 1.4 -0.4
v 0.3 1.4 -0.4
v 0.4 1.4 -0.4
v -0.2 1.4 -0.5
v 0.2 1.4 -0.5
v -0.1 1.5 1.6
v 0.1 1.5 1.6
v -0.1 1.5 0.6
v 0.1 1.5 0.6
v -0.5 1.5 0.4
v -0.4 1.5 0.4
v 0.4 1.5 0.4
v 0.5 1.5 0.4
v -0.4 1.5 0
v -0.2 1.5 0
v 0.2 1.5 0
v 0.4 1.5 0
v -0.5 1.5 -0.2
v -0.4 1.5 -0.2
v -0.2 1.5 -0.2
v 0.2 1.5 -0.2
v 0.4 1.5 -0.2
v 0.5 1.5 -0.2
v -0.4 1.5 -0.3
v -0.3 1.5 -0.3
v 0.3 1.5 -0.3
v 0.4 1.5 -0.3
v -0.3 1.5 -0.4
v 0.3 1.5 -0.4
v -0.4 1.6 0.6
v -0.2 1.6 0.6
v 0.2 1.6 0.6
v 0.4 1.6 0.6
v -0.3 1.6 0.5
v -0.2 1.6 0.5
v 0.2 1.6 0.5
v 0.3 1.6 0.5
v -0.4 1.6 0
v -0.3 1.6 0
v 0.3 1.6 0
v 0.4 1.6 0
v -0.2 1.6 -0.1
v 0.2 1.6 -0.1
v -0.2 1.6 -0.2
v 0.2 1.6 -0.2
v -0.2 1.7 0.6
v 0.2 1.7 0.6
v -0.3 1.7 0.5
v -0.2 1.7 0.5
v 0.2 1.7 0.5
v 0.3 1.7 0.5
v -0.3 1.7 0
v -0.2 1.7 0
v 0.2 1.7 0
v 0.3 1.7 0
v -0.2 1.7 -0.1
v 0.2 1.7 -0.1
v 0.5 2.2 -0.5
v 0.6 2.2 -0.5
v 0.5 2.2 -0.6
v 0.6 2.2 -0.6

# faces
f 5/2/1 2/2/1 1/2/1
f 5/3/1 3/3/1 2/3/1
f 6/3/1 3/3/1 5/3/1
f 7/3/1 3/3/1 6/3/1
f 8/2/1 4/2/1 3/2/1
f 8/3/1 3/3/1 7/3/1
f 9/3/1 7/3/1 6/3/1
f 9/2/1 6/2/1 5/2/1
f 10/2/1 8/2/1 7/2/1
f 10/3/1 7/3/1 9/3/1
f 11/2/1 4/2/1 8/2/1
f 11/2/1 8/2/1 10/2/1
f 12/2/1 4/2/1 11/2/1
f 13/2/1 10/2/1 9/2/1
f 13/2/1 5/2/1 1/2/1
f 13/2/1 11/2/1 10/2/1
f 13/2/1 9/2/1 5/2/1
f 14/2/1 11/2/1 13/2/1
f 15/2/1 11/2/1 14/2/1
f 16/2/1 11/2/1 15/2/1
f 17/2/1 15/2/1 14/2/1
f 18/2/1 15/2/1 17/2/1
f 19/2/1 15/2/1 18/2/1
f 20/2/1 15/2/1 19/2/1
f 21/2/1 19/2/1 18/2/1
f 22/2/1 19/2/1 21/2/1
f 28/1/1 24/1/1 23/1/1
f 29/1/1 24/1/1 28/1/1
f 30/2/1 26/2/1 25/2/1
f 31/2/1 26/2/1 30/2/1
f 33/2/1 28/2/1 27/2/1
f 34/2/1 28/2/1 33/2/1
f 36/1/1 33/1/1 32/1/1
f 37/1/1 33/1/1 36/1/1
f 38/2/1 36/2/1 35/2/1
f 39/2/1 36/2/1 38/2/1
f 43/2/1 41/2/1 40/2/1
f 44/2/1 41/2/1 43/2/1
f 48/2/1 43/2/1 42/2/1
f 49/2/1 43/2/1 48/2/1
f 51/2/1 48/2/1 47/2/1
f 52/2/1 48/2/1 51/2/1
f 53/2/1 46/2/1 45/2/1
f 55/2/1 51/2/1 50/2/1
f 56/2/1 51/2/1 55/2/1
f 57/2/1 54/2/1 53/2/1
f 57/2/1 53/2/1 45/2/1
f 58/2/1 54/2/1 57/2/1
f 61/2/1 60/2/1 59/2/1
f 62/2/1 60/2/1 61/2/1
f 65/2/1 64/2/1 63/2/1
f 66/2/1 64/2/1 65/2/1
f 69/2/1 68/2/1 67/2/1
f 70/2/1 68/2/1 69/2/1
f 75/4/1 72/4/1 71/4/1
f 76/4/1 72/4/1 75/4/1
f 77/1/1 74/1/1 73/1/1
f 78/1/1 74/1/1 77/1/1
f 83/2/1 80/2/1 79/2/1
f 84/2/1 80/2/1 83/2/1
f 85/2/1 82/2/1 81/2/1
f 86/2/1 82/2/1 85/2/1
f 87/2/1 83/2/1 79/2/1
f 88/2/1 83/2/1 87/2/1
f 91/4/1 90/4/1 89/4/1
f 92/4/1 90/4/1 91/4/1
f 95/4/1 94/4/1 93/4/1
f 96/4/1 94/4/1 95/4/1
f 99/4/1 98/4/1 97/4/1
f 100/4/1 98/4/1 99/4/1
f 103/4/1 102/4/1 101/4/1
f 104/4/1 102/4/1 103/4/1
f 105/4/1 102/4/1 104/4/1
f 106/4/2 107/4/2 108/4/2
f 108/4/2 107/4/2 109/4/2
f 110/4/2 111/4/2 112/4/2
f 112/4/2 111/4/2 113/4/2
f 114/4/2 115/4/2 116/4/2
f 116/4/2 115/4/2 117/4/2
f 118/4/2 119/4/2 122/4/2
f 122/4/2 119/4/2 123/4/2
f 120/1/2 121/1/2 124/1/2
f 124/1/2 121/1/2 125/1/2
f 126/2/2 127/2/2 130/2/2
f 130/2/2 127/2/2 131/2/2
f 128/2/2 129/2/2 132/2/2
f 132/2/2 129/2/2 133/2/2
f 126/2/2 130/2/2 134/2/2
f 134/2/2 130/2/2 135/2/2
f 136/2/2 137/2/2 138/2/2
f 138/2/2 137/2/2 139/2/2
f 140/2/2 141/2/2 142/2/2
f 142/2/2 141/2/2 143/2/2
f 144/2/2 145/2/2 146/2/2
f 146/2/2 145/2/2 147/2/2
f 148/2/2 149/2/2 151/2/2
f 151/2/2 149/2/2 152/2/2
f 150/2/2 151/2/2 156/2/2
f 156/2/2 151/2/2 157/2/2
f 155/2/2 156/2/2 159/2/2
f 159/2/2 156/2/2 160/2/2
f 153/2/2 154/2/2 161/2/2
f 158/2/2 159/2/2 163/2/2
f 163/2/2 159/2/2 164/2/2
f 161/2/2 162/2/2 165/2/2
f 153/2/2 161/2/2 165/2/2
f 165/2/2 162/2/2 166/2/2
f 167/1/2 168/1/2 172/1/2
f 172/1/2 168/1/2 173/1/2
f 169/2/2 170/2/2 174/2/2
f 174/2/2 170/2/2 175/2/2
f 171/2/2 172/2/2 177/2/2
f 177/2/2 172/2/2 178/2/2
f 176/1/2 177/1/2 180/1/2
f 180/1/2 177/1/2 181/1/2
f 179/2/2 180/2/2 182/2/2
f 182/2/2 180/2/2 183/2/2
f 184/2/2 185/2/2 188/2/2
f 185/3/2 186/3/2 188/3/2
f 188/3/2 186/3/2 189/3/2
f 189/3/2 186/3/2 190/3/2
f 186/2/2 187/2/2 191/2/2
f 190/3/2 186/3/2 191/3/2
f 189/3/2 190/3/2 192/3/2
f 188/2/2 189/2/2 192/2/2
f 190/2/2 191/2/2 193/2/2
f 192/3/2 190/3/2 193/3/2
f 191/2/2 187/2/2 194/2/2
f 193/2/2 191/2/2 194/2/2
f 194/2/2 187/2/2 195/2/2
f 195/2/2 187/2/2 196/2/2
f 192/2/2 193/2/2 197/2/2
f 184/2/2 188/2/2 197/2/2
f 188/2/2 192/2/2 197/2/2
f 193/2/2 194/2/2 197/2/2
f 197/2/2 194/2/2 198/2/2
f 198/2/2 194/2/2 199/2/2
f 199/2/2 194/2/2 200/2/2
f 198/2/2 199/2/2 201/2/2
f 201/2/2 199/2/2 202/2/2
f 202/2/2 199/2/2 203/2/2
f 203/2/2 199/2/2 204/2/2
f 202/2/2 203/2/2 205/2/2
f 205/2/2 203/2/2 206/2/2
f 195/4/2 196/4/2 207/4/2
f 207/4/2 196/4/2 208/4/2
f 212/4/3 210/4/3 209/4/3
f 213/4/3 210/4/3 212/4/3
f 215/4/3 212/4/3 211/4/3
f 216/4/3 212/4/3 215/4/3
f 217/4/3 214/4/3 213/4/3
f 218/4/3 214/4/3 217/4/3
f 219/4/3 217/4/3 216/4/3
f 220/4/3 217/4/3 219/4/3
f 223/4/3 222/4/3 221/4/3
f 224/4/3 222/4/3 223/4/3
f 227/2/3 226/2/3 225/2/3
f 229/2/3 228/2/3 227/2/3
f 231/2/3 227/2/3 225/2/3
f 231/2/3 230/2/3 229/2/3
f 231/2/3 229/2/3 227/2/3
f 232/2/3 230/2/3 231/2/3
f 233/2/3 231/2/3 225/2/3
f 234/3/3 232/3/3 231/3/3
f 234/2/3 231/2/3 233/2/3
f 235/2/3 230/2/3 232/2/3
f 235/3/3 232/3/3 234/3/3
f 236/2/3 230/2/3 235/2/3
f 237/2/3 230/2/3 236/2/3
f 239/2/3 233/2/3 225/2/3
f 240/3/3 234/3/3 233/3/3
f 240/2/3 233/2/3 239/2/3
f 241/3/3 234/3/3 240/3/3
f 242/3/3 236/3/3 235/3/3
f 243/2/3 238/2/3 237/2/3
f 243/3/3 236/3/3 242/3/3
f 243/2/3 237/2/3 236/2/3
f 244/2/3 238/2/3 243/2/3
f 245/2/3 239/2/3 225/2/3
f 245/3/3 240/3/3 239/3/3
f 246/3/3 240/3/3 245/3/3
f 249/3/3 244/3/3 243/3/3
f 250/2/3 238/2/3 244/2/3
f 250/3/3 244/3/3 249/3/3
f 251/3/3 247/3/3 246/3/3
f 251/2/3 246/2/3 245/2/3
f 252/3/3 247/3/3 251/3/3
f 253/3/3 249/3/3 248/3/3
f 254/2/3 250/2/3 249/2/3
f 254/3/3 249/3/3 253/3/3
f 255/2/3 238/2/3 250/2/3
f 255/2/3 250/2/3 254/2/3
f 256/2/3 238/2/3 255/2/3
f 257/2/3 252/2/3 251/2/3
f 257/3/3 253/3/3 252/3/3
f 258/2/3 254/2/3 253/2/3
f 258/3/3 253/3/3 257/3/3
f 258/2/3 255/2/3 254/2/3
f 259/2/3 258/2/3 257/2/3
f 260/2/3 255/2/3 258/2/3
f 260/2/3 258/2/3 259/2/3
f 261/2/3 257/2/3 251/2/3
f 261/2/3 259/2/3 257/2/3
f 262/2/3 259/2/3 261/2/3
f 263/2/3 245/2/3 225/2/3
f 263/2/3 251/2/3 245/2/3
f 263/2/3 261/2/3 251/2/3
f 264/2/3 261/2/3 263/2/3
f 267/2/3 266/2/3 265/2/3
f 268/2/3 266/2/3 267/2/3
f 271/2/3 270/2/3 269/2/3
f 272/2/3 270/2/3 271/2/3
f 275/2/3 274/2/3 273/2/3
f 276/2/3 274/2/3 275/2/3
f 279/2/3 278/2/3 277/2/3
f 280/2/3 278/2/3 279/2/3
f 283/2/3 282/2/3 281/2/3
f 285/2/3 283/2/3 281/2/3
f 285/2/3 284/2/3 283/2/3
f 286/2/3 284/2/3 285/2/3
f 289/2/3 288/2/3 287/2/3
f 290/2/3 288/2/3 289/2/3
f 291/2/3 289/2/3 287/2/3
f 292/2/3 289/2/3 291/2/3
f 296/4/3 294/4/3 293/4/3
f 296/4/3 295/4/3 294/4/3
f 297/4/3 295/4/3 296/4/3
f 298/2/4 299/2/4 300/2/4
f 298/2/4 300/2/4 302/2/4
f 300/2/4 301/2/4 302/2/4
f 302/2/4 301/2/4 303/2/4
f 304/2/4 305/2/4 306/2/4
f 306/2/4 305/2/4 307/2/4
f 304/2/4 306/2/4 308/2/4
f 308/2/4 306/2/4 309/2/4
f 310/2/4 311/2/4 312/2/4
f 312/2/4 311/2/4 313/2/4
f 314/2/4 315/2/4 316/2/4
f 316/2/4 315/2/4 317/2/4
f 317/2/4 318/2/4 319/2/4
f 319/2/4 318/2/4 320/2/4
f 321/2/4 322/2/4 323/2/4
f 323/2/4 322/2/4 324/2/4
f 325/2/4 326/2/4 328/2/4
f 328/2/4 326/2/4 329/2/4
f 327/2/4 328/2/4 330/2/4
f 330/2/4 328/2/4 331/2/4
f 332/2/4 333/2/4 334/2/4
f 334/2/4 333/2/4 335/2/4
f 335/1/4 336/1/4 337/1/4
f 337/1/4 336/1/4 338/1/4
f 338/2/4 339/2/4 340/2/4
f 340/2/4 339/2/4 341/2/4
f 342/2/4 343/2/4 345/2/4
f 345/2/4 343/2/4 346/2/4
f 344/1/4 345/1/4 348/1/4
f 348/1/4 345/1/4 349/1/4
f 347/2/4 348/2/4 350/2/4
f 350/2/4 348/2/4 351/2/4
f 352/2/4 353/2/4 354/2/4
f 354/2/4 353/2/4 355/2/4
f 355/2/4 356/2/4 357/2/4
f 357/2/4 356/2/4 358/2/4
f 358/2/4 359/2/4 360/2/4
f 358/2/4 360/2/4 362/2/4
f 360/2/4 361/2/4 362/2/4
f 362/2/4 361/2/4 363/2/4
f 363/2/4 361/2/4 365/2/4
f 365/2/4 361/2/4 366/2/4
f 364/2/4 365/2/4 366/2/4
f 366/2/4 361/2/4 367/2/4
f 364/2/4 366/2/4 369/2/4
f 369/2/4 366/2/4 370/2/4
f 368/2/4 369/2/4 372/2/4
f 372/2/4 369/2/4 373/2/4
f 371/2/4 372/2/4 374/2/4
f 374/2/4 372/2/4 375/2/4
f 376/1/4 377/1/4 378/1/4
f 378/1/4 377/1/4 379/1/4
f 379/2/4 380/2/4 381/2/4
f 381/2/4 380/2/4 382/2/4
f 383/1/4 384/1/4 385/1/4
f 385/1/4 384/1/4 386/1/4
f 387/2/4 388/2/4 390/2/4
f 390/2/4 388/2/4 391/2/4
f 389/1/4 390/1/4 392/1/4
f 392/1/4 390/1/4 393/1/4
f 394/2/4 395/2/4 396/2/4
f 396/2/4 397/2/4 398/2/4
f 396/2/4 398/2/4 400/2/4
f 398/2/4 399/2/4 400/2/4
f 400/2/4 399/2/4 401/2/4
f 394/2/4 396/2/4 402/2/4
f 396/2/4 400/2/4 402/2/4
f 402/2/4 400/2/4 403/2/4
f 394/2/4 402/2/4 404/2/4
f 394/2/4 404/2/4 406/2/4
f 404/4/4 405/4/4 407/4/4
f 406/2/4 404/2/4 407/2/4
f 407/4/4 405/4/4 408/4/4
f 411/2/5 410/2/5 409/2/5
f 412/2/5 410/2/5 411/2/5
f 413/2/5 410/2/5 412/2/5
f 414/2/5 410/2/5 413/2/5
f 415/3/5 412/3/5 411/3/5
f 416/2/5 413/2/5 412/2/5
f 416/3/5 412/3/5 415/3/5
f 417/3/5 414/3/5 413/3/5
f 417/2/5 413/2/5 416/2/5
f 418/3/5 414/3/5 417/3/5
f 419/2/5 416/2/5 415/2/5
f 419/2/5 417/2/5 416/2/5
f 419/2/5 418/2/5 417/2/5
f 420/2/5 418/2/5 419/2/5
f 423/4/5 422/4/5 421/4/5
f 424/4/5 422/4/5 423/4/5
f 429/4/5 426/4/5 425/4/5
f 430/4/5 426/4/5 429/4/5
f 431/4/5 428/4/5 427/4/5
f 432/4/5 428/4/5 431/4/5
f 435/4/5 434/4/5 433/4/5
f 436/4/5 434/4/5 435/4/5
f 437/2/6 438/2/6 441/2/6
f 439/2/6 440/2/6 444/2/6
f 444/2/6 440/2/6 445/2/6
f 441/2/6 442/2/6 446/2/6
f 437/2/6 441/2/6 446/2/6
f 446/2/6 442/2/6 447/2/6
f 443/2/6 444/2/6 448/2/6
f 448/2/6 444/2/6 449/2/6
f 450/4/6 451/4/6 452/4/6
f 452/4/6 451/4/6 453/4/6
f 454/2/6 455/2/6 458/2/6
f 458/2/6 455/2/6 459/2/6
f 456/2/6 457/2/6 460/2/6
f 460/2/6 457/2/6 461/2/6
f 462/2/6 463/2/6 466/2/6
f 466/2/6 463/2/6 467/2/6
f 464/2/6 465/2/6 470/2/6
f 470/2/6 465/2/6 471/2/6
f 467/1/6 468/1/6 472/1/6
f 472/1/6 468/1/6 473/1/6
f 469/1/6 470/1/6 476/1/6
f 476/1/6 470/1/6 477/1/6
f 473/2/6 474/2/6 478/2/6
f 478/2/6 474/2/6 479/2/6
f 475/2/6 476/2/6 480/2/6
f 480/2/6 476/2/6 481/2/6
f 482/2/6 483/2/6 487/2/6
f 484/2/6 485/2/6 488/2/6
f 486/2/6 487/2/6 490/2/6
f 487/2/6 483/2/6 491/2/6
f 490/2/6 487/2/6 491/2/6
f 488/2/6 489/2/6 492/2/6
f 484/2/6 488/2/6 492/2/6
f 492/2/6 489/2/6 493/2/6
f 494/2/6 495/2/6 498/2/6
f 498/2/6 495/2/6 499/2/6
f 496/2/6 497/2/6 502/2/6
f 502/2/6 497/2/6 503/2/6
f 499/2/6 500/2/6 504/2/6
f 504/2/6 500/2/6 505/2/6
f 501/2/6 502/2/6 508/2/6
f 508/2/6 502/2/6 509/2/6
f 505/2/6 506/2/6 510/2/6
f 510/2/6 506/2/6 511/2/6
f 511/2/6 506/2/6 512/2/6
f 507/2/6 508/2/6 513/2/6
f 513/2/6 508/2/6 514/2/6
f 514/2/6 508/2/6 515/2/6
f 511/2/6 512/2/6 516/2/6
f 513/2/6 514/2/6 516/2/6
f 512/2/6 513/2/6 516/2/6
f 516/2/6 514/2/6 517/2/6
f 518/4/6 519/4/6 522/4/6
f 522/4/6 519/4/6 523/4/6
f 520/4/6 521/4/6 524/4/6
f 524/4/6 521/4/6 525/4/6
f 526/2/6 527/2/6 530/2/6
f 530/2/6 527/2/6 531/2/6
f 528/2/6 529/2/6 534/2/6
f 534/2/6 529/2/6 535/2/6
f 531/1/6 532/1/6 536/1/6
f 536/1/6 532/1/6 537/1/6
f 533/1/6 534/1/6 540/1/6
f 540/1/6 534/1/6 541/1/6
f 537/2/6 538/2/6 542/2/6
f 542/2/6 538/2/6 543/2/6
f 539/2/6 540/2/6 546/2/6
f 546/2/6 540/2/6 547/2/6
f 544/1/6 545/1/6 548/1/6
f 548/1/6 545/1/6 549/1/6
f 550/4/6 551/4/6 552/4/6
f 552/4/6 551/4/6 553/4/6
f 554/2/6 555/2/6 558/2/6
f 556/2/6 557/2/6 561/2/6
f 558/2/6 559/2/6 562/2/6
f 554/2/6 558/2/6 562/2/6
f 562/2/6 559/2/6 563/2/6
f 563/2/6 559/2/6 564/2/6
f 560/2/6 561/2/6 565/2/6
f 561/2/6 557/2/6 566/2/6
f 565/2/6 561/2/6 566/2/6
f 566/2/6 557/2/6 567/2/6
f 563/2/6 564/2/6 568/2/6
f 564/2/6 565/2/6 568/2/6
f 565/2/6 566/2/6 568/2/6
f 568/2/6 566/2/6 569/2/6
f 569/2/6 566/2/6 570/2/6
f 570/2/6 566/2/6 571/2/6
f 569/2/6 570/2/6 572/2/6
f 572/2/6 570/2/6 573/2/6
f 574/2/6 575/2/6 578/2/6
f 578/2/6 575/2/6 579/2/6
f 576/2/6 577/2/6 580/2/6
f 580/2/6 577/2/6 581/2/6
f 574/2/6 578/2/6 582/2/6
f 582/2/6 578/2/6 583/2/6
f 581/2/6 577/2/6 584/2/6
f 584/2/6 577/2/6 585/2/6
f 586/2/6 587/2/6 588/2/6
f 588/2/6 587/2/6 589/2/6
f 590/2/6 591/2/6 593/2/6
f 593/2/6 591/2/6 594/2/6
f 592/2/6 593/2/6 596/2/6
f 594/2/6 595/2/6 596/2/6
f 593/2/6 594/2/6 596/2/6
f 596/2/6 595/2/6 597/2/6
f 597/2/6 595/2/6 598/2/6
f 598/2/6 595/2/6 599/2/6
f 597/2/6 598/2/6 600/2/6
f 600/2/6 598/2/6 601/2/6
f 602/4/6 603/4/6 604/4/6
f 604/4/6 603/4/6 605/4/6
