# MagicaVoxel @ Ephtracy

# group
o 

# material
mtllib LightTank-1.mtl
usemtl palette

# normals
vn 0 0 1
vn 0 0 -1
vn 1 0 0
vn -1 0 0
vn 0 -1 0
vn 0 1 0

# texcoords
vt 0.0136719 0.5
vt 0.0292969 0.5
vt 0.0800781 0.5

# verts
v 0.1 1.3 1.6
v -0.1 1.3 1.6
v 0.2 1.4 1.6
v 0.1 1.4 1.6
v -0.1 1.4 1.6
v -0.2 1.4 1.6
v 0.2 1.6 1.6
v 0.1 1.6 1.6
v -0.1 1.6 1.6
v -0.2 1.6 1.6
v 0.1 1.7 1.6
v -0.1 1.7 1.6
v 0.2 1.2 0.7
v -0.2 1.2 0.7
v 0.3 1.3 0.7
v 0.2 1.3 0.7
v 0.1 1.3 0.7
v -0.1 1.3 0.7
v -0.2 1.3 0.7
v -0.3 1.3 0.7
v 0.2 1.4 0.7
v 0.1 1.4 0.7
v -0.1 1.4 0.7
v -0.2 1.4 0.7
v 0.2 1.6 0.7
v 0.1 1.6 0.7
v -0.1 1.6 0.7
v -0.2 1.6 0.7
v 0.3 1.7 0.7
v 0.2 1.7 0.7
v 0.1 1.7 0.7
v -0.1 1.7 0.7
v -0.2 1.7 0.7
v -0.3 1.7 0.7
v 0.2 1.8 0.7
v -0.2 1.8 0.7
v 0.4 1.2 0.6
v 0.2 1.2 0.6
v -0.2 1.2 0.6
v -0.4 1.2 0.6
v 0.3 1.3 0.6
v 0.2 1.3 0.6
v -0.2 1.3 0.6
v -0.3 1.3 0.6
v 0.1 1.4 0.6
v -0.1 1.4 0.6
v 0.4 1.5 0.6
v 0.3 1.5 0.6
v -0.3 1.5 0.6
v -0.4 1.5 0.6
v 0.1 1.6 0.6
v -0.1 1.6 0.6
v 0.3 1.7 0.6
v 0.2 1.7 0.6
v -0.2 1.7 0.6
v -0.3 1.7 0.6
v 0.3 1.8 0.6
v 0.2 1.8 0.6
v -0.2 1.8 0.6
v -0.3 1.8 0.6
v 0.4 1.5 0.5
v 0.3 1.5 0.5
v -0.3 1.5 0.5
v -0.4 1.5 0.5
v 0.4 1.7 0.5
v 0.3 1.7 0.5
v -0.3 1.7 0.5
v -0.4 1.7 0.5
v 0.2 1.8 0.5
v -0.2 1.8 0.5
v 0.2 1.9 0.5
v -0.2 1.9 0.5
v 0.1 1.8 0.3
v -0.1 1.8 0.3
v 0.1 1.9 0.3
v -0.1 1.9 0.3
v 0.1 1.8 0.4
v -0.1 1.8 0.4
v 0.1 1.9 0.4
v -0.1 1.9 0.4
v 0.4 1.6 0.1
v 0.3 1.6 0.1
v -0.3 1.6 0.1
v -0.4 1.6 0.1
v 0.4 1.7 0.1
v 0.3 1.7 0.1
v -0.3 1.7 0.1
v -0.4 1.7 0.1
v 0.3 1.7 0
v 0.2 1.7 0
v -0.2 1.7 0
v -0.3 1.7 0
v 0.3 1.8 0
v 0.2 1.8 0
v -0.2 1.8 0
v -0.3 1.8 0
v 0.2 1.9 0
v -0.2 1.9 0
v 0.4 1.5 -0.1
v 0.3 1.5 -0.1
v -0.3 1.5 -0.1
v -0.4 1.5 -0.1
v 0.4 1.6 -0.1
v 0.3 1.6 -0.1
v -0.3 1.6 -0.1
v -0.4 1.6 -0.1
v 0.2 1.7 -0.1
v -0.2 1.7 -0.1
v 0.2 1.8 -0.1
v -0.2 1.8 -0.1
v 0.4 1.2 -0.2
v 0.2 1.2 -0.2
v -0.2 1.2 -0.2
v -0.4 1.2 -0.2
v 0.4 1.5 -0.2
v 0.3 1.5 -0.2
v -0.3 1.5 -0.2
v -0.4 1.5 -0.2
v 0.2 1.6 -0.2
v -0.2 1.6 -0.2
v 0.3 1.7 -0.2
v -0.3 1.7 -0.2
v 0.2 1.2 -0.3
v -0.2 1.2 -0.3
v 0.2 1.6 -0.3
v -0.2 1.6 -0.3
v 0.4 1.2 0.6
v 0.4 1.5 0.6
v 0.4 1.5 0.5
v 0.4 1.7 0.5
v 0.4 1.6 0.1
v 0.4 1.7 0.1
v 0.4 1.5 -0.1
v 0.4 1.6 -0.1
v 0.4 1.2 -0.2
v 0.4 1.5 -0.2
v 0.3 1.3 0.7
v 0.3 1.7 0.7
v 0.3 1.3 0.6
v 0.3 1.5 0.6
v 0.3 1.7 0.6
v 0.3 1.8 0.6
v 0.3 1.5 0.5
v 0.3 1.7 0.5
v 0.3 1.6 0.1
v 0.3 1.7 0.1
v 0.3 1.7 0
v 0.3 1.8 0
v 0.3 1.5 -0.1
v 0.3 1.6 -0.1
v 0.3 1.5 -0.2
v 0.3 1.7 -0.2
v 0.2 1.4 1.6
v 0.2 1.6 1.6
v 0.2 1.2 0.7
v 0.2 1.3 0.7
v 0.2 1.4 0.7
v 0.2 1.6 0.7
v 0.2 1.7 0.7
v 0.2 1.8 0.7
v 0.2 1.2 0.6
v 0.2 1.3 0.6
v 0.2 1.7 0.6
v 0.2 1.8 0.6
v 0.2 1.8 0.5
v 0.2 1.9 0.5
v 0.2 1.7 0
v 0.2 1.8 0
v 0.2 1.9 0
v 0.2 1.7 -0.1
v 0.2 1.8 -0.1
v 0.2 1.2 -0.2
v 0.2 1.6 -0.2
v 0.2 1.2 -0.3
v 0.2 1.6 -0.3
v 0.1 1.3 1.6
v 0.1 1.4 1.6
v 0.1 1.6 1.6
v 0.1 1.7 1.6
v 0.1 1.3 0.7
v 0.1 1.4 0.7
v 0.1 1.6 0.7
v 0.1 1.7 0.7
v -0.1 1.4 1.6
v -0.1 1.6 1.6
v -0.1 1.4 0.6
v -0.1 1.6 0.6
v -0.1 1.8 0.4
v -0.1 1.9 0.4
v -0.1 1.8 0.3
v -0.1 1.9 0.3
v 0.1 1.4 1.6
v 0.1 1.6 1.6
v 0.1 1.4 0.6
v 0.1 1.6 0.6
v 0.1 1.8 0.4
v 0.1 1.9 0.4
v 0.1 1.8 0.3
v 0.1 1.9 0.3
v -0.1 1.3 1.6
v -0.1 1.4 1.6
v -0.1 1.6 1.6
v -0.1 1.7 1.6
v -0.1 1.3 0.7
v -0.1 1.4 0.7
v -0.1 1.6 0.7
v -0.1 1.7 0.7
v -0.2 1.4 1.6
v -0.2 1.6 1.6
v -0.2 1.2 0.7
v -0.2 1.3 0.7
v -0.2 1.4 0.7
v -0.2 1.6 0.7
v -0.2 1.7 0.7
v -0.2 1.8 0.7
v -0.2 1.2 0.6
v -0.2 1.3 0.6
v -0.2 1.7 0.6
v -0.2 1.8 0.6
v -0.2 1.8 0.5
v -0.2 1.9 0.5
v -0.2 1.7 0
v -0.2 1.8 0
v -0.2 1.9 0
v -0.2 1.7 -0.1
v -0.2 1.8 -0.1
v -0.2 1.2 -0.2
v -0.2 1.6 -0.2
v -0.2 1.2 -0.3
v -0.2 1.6 -0.3
v -0.3 1.3 0.7
v -0.3 1.7 0.7
v -0.3 1.3 0.6
v -0.3 1.5 0.6
v -0.3 1.7 0.6
v -0.3 1.8 0.6
v -0.3 1.5 0.5
v -0.3 1.7 0.5
v -0.3 1.6 0.1
v -0.3 1.7 0.1
v -0.3 1.7 0
v -0.3 1.8 0
v -0.3 1.5 -0.1
v -0.3 1.6 -0.1
v -0.3 1.5 -0.2
v -0.3 1.7 -0.2
v -0.4 1.2 0.6
v -0.4 1.5 0.6
v -0.4 1.5 0.5
v -0.4 1.7 0.5
v -0.4 1.6 0.1
v -0.4 1.7 0.1
v -0.4 1.5 -0.1
v -0.4 1.6 -0.1
v -0.4 1.2 -0.2
v -0.4 1.5 -0.2
v 0.4 1.2 0.6
v 0.4 1.2 -0.2
v 0.2 1.2 0.7
v 0.2 1.2 0.6
v 0.2 1.2 -0.2
v 0.2 1.2 -0.3
v -0.2 1.2 0.7
v -0.2 1.2 0.6
v -0.2 1.2 -0.2
v -0.2 1.2 -0.3
v -0.4 1.2 0.6
v -0.4 1.2 -0.2
v 0.3 1.3 0.7
v 0.3 1.3 0.6
v 0.2 1.3 0.7
v 0.2 1.3 0.6
v 0.1 1.3 1.6
v 0.1 1.3 0.7
v -0.1 1.3 1.6
v -0.1 1.3 0.7
v -0.2 1.3 0.7
v -0.2 1.3 0.6
v -0.3 1.3 0.7
v -0.3 1.3 0.6
v 0.2 1.4 1.6
v 0.2 1.4 0.7
v 0.1 1.4 1.6
v 0.1 1.4 0.7
v -0.1 1.4 1.6
v -0.1 1.4 0.7
v -0.2 1.4 1.6
v -0.2 1.4 0.7
v 0.1 1.6 1.6
v 0.1 1.6 0.6
v -0.1 1.6 1.6
v -0.1 1.6 0.6
v 0.1 1.4 1.6
v 0.1 1.4 0.6
v -0.1 1.4 1.6
v -0.1 1.4 0.6
v 0.4 1.5 0.6
v 0.4 1.5 0.5
v 0.4 1.5 -0.1
v 0.4 1.5 -0.2
v 0.3 1.5 0.6
v 0.3 1.5 0.5
v 0.3 1.5 -0.1
v 0.3 1.5 -0.2
v -0.3 1.5 0.6
v -0.3 1.5 0.5
v -0.3 1.5 -0.1
v -0.3 1.5 -0.2
v -0.4 1.5 0.6
v -0.4 1.5 0.5
v -0.4 1.5 -0.1
v -0.4 1.5 -0.2
v 0.4 1.6 0.1
v 0.4 1.6 -0.1
v 0.3 1.6 0.1
v 0.3 1.6 -0.1
v 0.2 1.6 1.6
v 0.2 1.6 0.7
v 0.2 1.6 -0.2
v 0.2 1.6 -0.3
v 0.1 1.6 1.6
v 0.1 1.6 0.7
v -0.1 1.6 1.6
v -0.1 1.6 0.7
v -0.2 1.6 1.6
v -0.2 1.6 0.7
v -0.2 1.6 -0.2
v -0.2 1.6 -0.3
v -0.3 1.6 0.1
v -0.3 1.6 -0.1
v -0.4 1.6 0.1
v -0.4 1.6 -0.1
v 0.4 1.7 0.5
v 0.4 1.7 0.1
v 0.3 1.7 0.7
v 0.3 1.7 0.6
v 0.3 1.7 0.5
v 0.3 1.7 0.1
v 0.3 1.7 0
v 0.3 1.7 -0.2
v 0.2 1.7 0.7
v 0.2 1.7 0.6
v 0.2 1.7 0
v 0.2 1.7 -0.1
v 0.1 1.7 1.6
v 0.1 1.7 0.7
v -0.1 1.7 1.6
v -0.1 1.7 0.7
v -0.2 1.7 0.7
v -0.2 1.7 0.6
v -0.2 1.7 0
v -0.2 1.7 -0.1
v -0.3 1.7 0.7
v -0.3 1.7 0.6
v -0.3 1.7 0.5
v -0.3 1.7 0.1
v -0.3 1.7 0
v -0.3 1.7 -0.2
v -0.4 1.7 0.5
v -0.4 1.7 0.1
v 0.3 1.8 0.6
v 0.3 1.8 0
v 0.2 1.8 0.7
v 0.2 1.8 0.6
v 0.2 1.8 0.5
v 0.2 1.8 0
v 0.2 1.8 -0.1
v 0.1 1.8 0.4
v 0.1 1.8 0.3
v -0.1 1.8 0.4
v -0.1 1.8 0.3
v -0.2 1.8 0.7
v -0.2 1.8 0.6
v -0.2 1.8 0.5
v -0.2 1.8 0
v -0.2 1.8 -0.1
v -0.3 1.8 0.6
v -0.3 1.8 0
v 0.2 1.9 0.5
v 0.2 1.9 0
v 0.1 1.9 0.4
v 0.1 1.9 0.3
v -0.1 1.9 0.4
v -0.1 1.9 0.3
v -0.2 1.9 0.5
v -0.2 1.9 0

# faces
f 4/2/1 2/2/1 1/2/1
f 5/2/1 2/2/1 4/2/1
f 7/2/1 4/2/1 3/2/1
f 8/2/1 4/2/1 7/2/1
f 9/2/1 6/2/1 5/2/1
f 10/2/1 6/2/1 9/2/1
f 11/2/1 9/2/1 8/2/1
f 12/2/1 9/2/1 11/2/1
f 16/1/1 14/1/1 13/1/1
f 17/1/1 14/1/1 16/1/1
f 18/1/1 14/1/1 17/1/1
f 19/1/1 14/1/1 18/1/1
f 21/1/1 16/1/1 15/1/1
f 21/1/1 17/1/1 16/1/1
f 22/1/1 17/1/1 21/1/1
f 23/1/1 20/1/1 19/1/1
f 23/1/1 19/1/1 18/1/1
f 24/1/1 20/1/1 23/1/1
f 25/1/1 21/1/1 15/1/1
f 28/1/1 20/1/1 24/1/1
f 29/1/1 26/1/1 25/1/1
f 29/1/1 25/1/1 15/1/1
f 30/1/1 26/1/1 29/1/1
f 31/1/1 26/1/1 30/1/1
f 32/1/1 28/1/1 27/1/1
f 33/1/1 20/1/1 28/1/1
f 33/1/1 28/1/1 32/1/1
f 34/1/1 20/1/1 33/1/1
f 35/1/1 31/1/1 30/1/1
f 35/1/1 32/1/1 31/1/1
f 35/1/1 33/1/1 32/1/1
f 36/1/1 33/1/1 35/1/1
f 41/1/1 38/1/1 37/1/1
f 42/1/1 38/1/1 41/1/1
f 43/1/1 40/1/1 39/1/1
f 44/1/1 40/1/1 43/1/1
f 47/1/1 41/1/1 37/1/1
f 48/1/1 41/1/1 47/1/1
f 49/1/1 40/1/1 44/1/1
f 50/1/1 40/1/1 49/1/1
f 51/1/1 46/1/1 45/1/1
f 52/1/1 46/1/1 51/1/1
f 57/1/1 54/1/1 53/1/1
f 58/1/1 54/1/1 57/1/1
f 59/1/1 56/1/1 55/1/1
f 60/1/1 56/1/1 59/1/1
f 65/1/1 62/1/1 61/1/1
f 66/1/1 62/1/1 65/1/1
f 67/1/1 64/1/1 63/1/1
f 68/1/1 64/1/1 67/1/1
f 71/3/1 70/3/1 69/3/1
f 72/3/1 70/3/1 71/3/1
f 75/3/1 74/3/1 73/3/1
f 76/3/1 74/3/1 75/3/1
f 77/3/2 78/3/2 79/3/2
f 79/3/2 78/3/2 80/3/2
f 81/1/2 82/1/2 85/1/2
f 85/1/2 82/1/2 86/1/2
f 83/1/2 84/1/2 87/1/2
f 87/1/2 84/1/2 88/1/2
f 89/1/2 90/1/2 93/1/2
f 93/1/2 90/1/2 94/1/2
f 91/1/2 92/1/2 95/1/2
f 95/1/2 92/1/2 96/1/2
f 94/3/2 95/3/2 97/3/2
f 97/3/2 95/3/2 98/3/2
f 99/1/2 100/1/2 103/1/2
f 103/1/2 100/1/2 104/1/2
f 101/1/2 102/1/2 105/1/2
f 105/1/2 102/1/2 106/1/2
f 107/1/2 108/1/2 109/1/2
f 109/1/2 108/1/2 110/1/2
f 111/1/2 112/1/2 115/1/2
f 115/1/2 112/1/2 116/1/2
f 113/1/2 114/1/2 117/1/2
f 117/1/2 114/1/2 118/1/2
f 116/1/2 112/1/2 119/1/2
f 113/1/2 117/1/2 120/1/2
f 116/1/2 119/1/2 121/1/2
f 119/1/2 120/1/2 121/1/2
f 120/1/2 117/1/2 122/1/2
f 121/1/2 120/1/2 122/1/2
f 123/1/2 124/1/2 125/1/2
f 125/1/2 124/1/2 126/1/2
f 129/1/3 128/1/3 127/1/3
f 131/1/3 130/1/3 129/1/3
f 132/1/3 130/1/3 131/1/3
f 133/1/3 129/1/3 127/1/3
f 133/1/3 131/1/3 129/1/3
f 134/1/3 131/1/3 133/1/3
f 135/1/3 133/1/3 127/1/3
f 136/1/3 133/1/3 135/1/3
f 139/1/3 138/1/3 137/1/3
f 140/1/3 138/1/3 139/1/3
f 141/1/3 138/1/3 140/1/3
f 143/1/3 142/1/3 141/1/3
f 143/1/3 141/1/3 140/1/3
f 144/1/3 142/1/3 143/1/3
f 146/1/3 142/1/3 144/1/3
f 147/1/3 142/1/3 146/1/3
f 147/1/3 146/1/3 145/1/3
f 148/1/3 142/1/3 147/1/3
f 150/1/3 147/1/3 145/1/3
f 151/1/3 150/1/3 149/1/3
f 152/1/3 147/1/3 150/1/3
f 152/1/3 150/1/3 151/1/3
f 157/2/3 154/2/3 153/2/3
f 158/2/3 154/2/3 157/2/3
f 161/1/3 156/1/3 155/1/3
f 162/1/3 156/1/3 161/1/3
f 163/1/3 160/1/3 159/1/3
f 164/1/3 160/1/3 163/1/3
f 168/3/3 166/3/3 165/3/3
f 169/3/3 166/3/3 168/3/3
f 170/1/3 168/1/3 167/1/3
f 171/1/3 168/1/3 170/1/3
f 174/1/3 173/1/3 172/1/3
f 175/1/3 173/1/3 174/1/3
f 180/2/3 177/2/3 176/2/3
f 181/2/3 177/2/3 180/2/3
f 182/2/3 179/2/3 178/2/3
f 183/2/3 179/2/3 182/2/3
f 186/2/3 185/2/3 184/2/3
f 187/2/3 185/2/3 186/2/3
f 190/3/3 189/3/3 188/3/3
f 191/3/3 189/3/3 190/3/3
f 192/2/4 193/2/4 194/2/4
f 194/2/4 193/2/4 195/2/4
f 196/3/4 197/3/4 198/3/4
f 198/3/4 197/3/4 199/3/4
f 200/2/4 201/2/4 204/2/4
f 204/2/4 201/2/4 205/2/4
f 202/2/4 203/2/4 206/2/4
f 206/2/4 203/2/4 207/2/4
f 208/2/4 209/2/4 212/2/4
f 212/2/4 209/2/4 213/2/4
f 210/1/4 211/1/4 216/1/4
f 216/1/4 211/1/4 217/1/4
f 214/1/4 215/1/4 218/1/4
f 218/1/4 215/1/4 219/1/4
f 220/3/4 221/3/4 223/3/4
f 223/3/4 221/3/4 224/3/4
f 222/1/4 223/1/4 225/1/4
f 225/1/4 223/1/4 226/1/4
f 227/1/4 228/1/4 229/1/4
f 229/1/4 228/1/4 230/1/4
f 231/1/4 232/1/4 233/1/4
f 233/1/4 232/1/4 234/1/4
f 234/1/4 232/1/4 235/1/4
f 235/1/4 236/1/4 237/1/4
f 234/1/4 235/1/4 237/1/4
f 237/1/4 236/1/4 238/1/4
f 238/1/4 236/1/4 240/1/4
f 240/1/4 236/1/4 241/1/4
f 239/1/4 240/1/4 241/1/4
f 241/1/4 236/1/4 242/1/4
f 239/1/4 241/1/4 244/1/4
f 243/1/4 244/1/4 245/1/4
f 244/1/4 241/1/4 246/1/4
f 245/1/4 244/1/4 246/1/4
f 247/1/4 248/1/4 249/1/4
f 249/1/4 250/1/4 251/1/4
f 251/1/4 250/1/4 252/1/4
f 247/1/4 249/1/4 253/1/4
f 249/1/4 251/1/4 253/1/4
f 253/1/4 251/1/4 254/1/4
f 247/1/4 253/1/4 255/1/4
f 255/1/4 253/1/4 256/1/4
f 260/1/5 258/1/5 257/1/5
f 261/1/5 258/1/5 260/1/5
f 263/1/5 260/1/5 259/1/5
f 263/1/5 262/1/5 261/1/5
f 263/1/5 261/1/5 260/1/5
f 264/1/5 262/1/5 263/1/5
f 265/1/5 262/1/5 264/1/5
f 266/1/5 262/1/5 265/1/5
f 267/1/5 265/1/5 264/1/5
f 268/1/5 265/1/5 267/1/5
f 271/1/5 270/1/5 269/1/5
f 272/1/5 270/1/5 271/1/5
f 275/2/5 274/2/5 273/2/5
f 276/2/5 274/2/5 275/2/5
f 279/1/5 278/1/5 277/1/5
f 280/1/5 278/1/5 279/1/5
f 283/2/5 282/2/5 281/2/5
f 284/2/5 282/2/5 283/2/5
f 287/2/5 286/2/5 285/2/5
f 288/2/5 286/2/5 287/2/5
f 291/2/5 290/2/5 289/2/5
f 292/2/5 290/2/5 291/2/5
f 293/2/6 294/2/6 295/2/6
f 295/2/6 294/2/6 296/2/6
f 297/1/6 298/1/6 301/1/6
f 301/1/6 298/1/6 302/1/6
f 299/1/6 300/1/6 303/1/6
f 303/1/6 300/1/6 304/1/6
f 305/1/6 306/1/6 309/1/6
f 309/1/6 306/1/6 310/1/6
f 307/1/6 308/1/6 311/1/6
f 311/1/6 308/1/6 312/1/6
f 313/1/6 314/1/6 315/1/6
f 315/1/6 314/1/6 316/1/6
f 317/2/6 318/2/6 321/2/6
f 321/2/6 318/2/6 322/2/6
f 323/2/6 324/2/6 325/2/6
f 325/2/6 324/2/6 326/2/6
f 319/1/6 320/1/6 327/1/6
f 327/1/6 320/1/6 328/1/6
f 329/1/6 330/1/6 331/1/6
f 331/1/6 330/1/6 332/1/6
f 333/1/6 334/1/6 337/1/6
f 337/1/6 334/1/6 338/1/6
f 335/1/6 336/1/6 341/1/6
f 341/1/6 336/1/6 342/1/6
f 339/1/6 340/1/6 343/1/6
f 343/1/6 340/1/6 344/1/6
f 345/2/6 346/2/6 347/2/6
f 347/2/6 346/2/6 348/2/6
f 344/1/6 340/1/6 352/1/6
f 349/1/6 350/1/6 353/1/6
f 353/1/6 350/1/6 354/1/6
f 351/1/6 352/1/6 357/1/6
f 352/1/6 340/1/6 358/1/6
f 357/1/6 352/1/6 358/1/6
f 355/1/6 356/1/6 359/1/6
f 359/1/6 356/1/6 360/1/6
f 361/1/6 362/1/6 364/1/6
f 364/1/6 362/1/6 365/1/6
f 365/1/6 362/1/6 366/1/6
f 368/3/6 369/3/6 370/3/6
f 370/3/6 369/3/6 371/3/6
f 363/1/6 364/1/6 372/1/6
f 364/1/6 365/1/6 372/1/6
f 372/1/6 365/1/6 373/1/6
f 373/1/6 365/1/6 374/1/6
f 366/1/6 367/1/6 375/1/6
f 375/1/6 367/1/6 376/1/6
f 373/1/6 374/1/6 377/1/6
f 374/1/6 375/1/6 377/1/6
f 377/1/6 375/1/6 378/1/6
f 379/3/6 380/3/6 381/3/6
f 381/3/6 380/3/6 382/3/6
f 379/3/6 381/3/6 383/3/6
f 382/3/6 380/3/6 384/3/6
f 379/3/6 383/3/6 385/3/6
f 383/3/6 384/3/6 385/3/6
f 384/3/6 380/3/6 386/3/6
f 385/3/6 384/3/6 386/3/6
